<svg xmlns="http://www.w3.org/2000/svg" data-name="Layer 1" viewBox="0 0 100 100" x="0px" y="0px"><title>Artboard 14</title><path fill="white" d="M67,86h5a2,2,0,0,0,2-2V75.54a7.17,7.17,0,0,0,7-7V23a7,7,0,0,0-7-7H28a7,7,0,0,0-7,7V69.3A6.8,6.8,0,0,0,27.9,76H28v8a2,2,0,0,0,2,2h5a2,2,0,0,0,2-2V76H65v8A2,2,0,0,0,67,86Zm2.53-17.92A4.44,4.44,0,1,1,74,63.64,4.45,4.45,0,0,1,69.53,68.08Zm-37,0A4.44,4.44,0,1,1,37,63.64,4.45,4.45,0,0,1,32.53,68.08ZM31,51a3,3,0,0,1-3-3V26a3,3,0,0,1,3-3H71a3,3,0,0,1,3,3V48a3,3,0,0,1-3,3Z"/></svg>